<?xml version="1.0" encoding="UTF-8"?>
<svg width="118px" height="118px" viewBox="0 0 118 118" version="1.1" xmlns="http://www.w3.org/2000/svg" xmlns:xlink="http://www.w3.org/1999/xlink">
    <title>4665CED2-FE85-4862-8038-CF3A504D92AF</title>
    <g id="Shortlisted-for-Intouch" stroke="none" stroke-width="1" fill="none" fill-rule="evenodd">
        <g id="23-404" transform="translate(-741.000000, -204.000000)" fill="#F04037">
            <g id="Break" transform="translate(741.000000, 204.000000)">
                <circle id="Oval" fill-opacity="0.1" cx="59" cy="59" r="59"></circle>
                <g id="broken-heart" transform="translate(36.000000, 38.000000)">
                    <path d="M34.4192727,0 L34.2949091,0 C32.4279099,-0.00155878719 30.5816912,0.393337973 28.8774545,1.1587739 L22.9090909,13.1429104 L31.6363636,20.8096034 L21.8181818,35.0477476 L26.1818182,21.9048453 L16.3636364,14.2381522 L21.684,2.66363622 C19.3847767,0.931673745 16.5871707,-0.00315591685 13.7127273,0 L13.5850909,0 C6.10514081,0.031695697 0.0453900925,6.1042775 0,13.6138644 C0,26.5048611 22.3636364,44.9728294 23.3094545,45.7526416 C23.7112142,46.0824528 24.2887858,46.0824528 24.6905455,45.7526416 C25.6418182,44.9728294 48,26.5048611 48,13.6094834 C47.9557914,6.10181996 41.8973048,0.0305086116 34.4192727,0 Z" id="Path"></path>
                </g>
            </g>
        </g>
    </g>
</svg>