<?xml version="1.0" encoding="UTF-8"?>
<svg width="69px" height="69px" viewBox="0 0 69 69" version="1.1" xmlns="http://www.w3.org/2000/svg" xmlns:xlink="http://www.w3.org/1999/xlink">
    <title>02DA54BA-8647-40A8-8BCE-ED3D4EBE24C2</title>
    <g id="Shortlisted-for-Intouch" stroke="none" stroke-width="1" fill="none" fill-rule="evenodd">
        <g id="10-Pricing-01" transform="translate(-766.000000, -1904.000000)" fill="#FEDC5A">
            <g id="Features" transform="translate(297.000000, 1469.000000)">
                <g id="1-copy-5" transform="translate(380.000000, 435.000000)">
                    <g id="Icon" transform="translate(89.000000, 0.000000)">
                        <circle id="Oval" fill-opacity="0.1" cx="34.5" cy="34.5" r="34.5"></circle>
                        <path d="M43.6666667,20 L26.3333333,20 C24.4932979,20.0021562 23.0022041,21.4608332 23,23.2608657 L23,49.3477917 C23,49.5817411 23.128071,49.7977745 23.3356593,49.9139329 C23.5432475,50.0300914 23.7985335,50.0285773 24.0046667,49.9099649 L35,43.582581 L45.9953333,49.9086606 C46.2012612,50.0271554 46.4562625,50.0287929 46.6637628,49.912953 C46.8712631,49.7971131 46.9995353,49.5815079 47,49.3477917 L47,23.2608657 C46.9977959,21.4608332 45.5067021,20.0021562 43.6666667,20 Z" id="Path" fill-rule="nonzero"></path>
                    </g>
                </g>
            </g>
        </g>
    </g>
</svg>