<?xml version="1.0" encoding="UTF-8"?>
<svg width="69px" height="69px" viewBox="0 0 69 69" version="1.1" xmlns="http://www.w3.org/2000/svg" xmlns:xlink="http://www.w3.org/1999/xlink">
    <title>55D5D79E-677F-4F0E-B780-C8B0348C2D1A</title>
    <g id="Shortlisted-for-Intouch" stroke="none" stroke-width="1" fill="none" fill-rule="evenodd">
        <g id="10-Pricing-01" transform="translate(-766.000000, -1632.000000)" fill="#F04037">
            <g id="Features" transform="translate(297.000000, 1469.000000)">
                <g id="1-copy-2" transform="translate(380.000000, 163.000000)">
                    <g id="Icon" transform="translate(89.000000, 0.000000)">
                        <circle id="Oval" fill-opacity="0.1" cx="34.5" cy="34.5" r="34.5"></circle>
                        <g id="layout-11" transform="translate(23.000000, 21.000000)" fill-rule="nonzero">
                            <path d="M9.41176471,16 L0.588235294,16 C0.263529412,16 0,15.7243077 0,15.3846154 L0,0.615384615 C0,0.275692308 0.263529412,0 0.588235294,0 L9.41176471,0 C9.73647059,0 10,0.275692308 10,0.615384615 L10,15.3846154 C10,15.7243077 9.73647059,16 9.41176471,16 Z" id="Path"></path>
                            <path d="M9.41176471,28 L0.588235294,28 C0.263529412,28 0,27.712 0,27.3571429 L0,19.6428571 C0,19.288 0.263529412,19 0.588235294,19 L9.41176471,19 C9.73647059,19 10,19.288 10,19.6428571 L10,27.3571429 C10,27.712 9.73647059,28 9.41176471,28 Z" id="Path"></path>
                            <path d="M23.4117647,9 L14.5882353,9 C14.2635294,9 14,8.712 14,8.35714286 L14,0.642857143 C14,0.288 14.2635294,0 14.5882353,0 L23.4117647,0 C23.7364706,0 24,0.288 24,0.642857143 L24,8.35714286 C24,8.712 23.7364706,9 23.4117647,9 Z" id="Path"></path>
                            <path d="M23.4117647,28 L14.5882353,28 C14.2635294,28 14,27.7243077 14,27.3846154 L14,12.6153846 C14,12.2756923 14.2635294,12 14.5882353,12 L23.4117647,12 C23.7364706,12 24,12.2756923 24,12.6153846 L24,27.3846154 C24,27.7243077 23.7364706,28 23.4117647,28 Z" id="Path"></path>
                        </g>
                    </g>
                </g>
            </g>
        </g>
    </g>
</svg>