<?xml version="1.0" encoding="UTF-8"?>
<svg width="69px" height="69px" viewBox="0 0 69 69" version="1.1" xmlns="http://www.w3.org/2000/svg" xmlns:xlink="http://www.w3.org/1999/xlink">
    <title>A71B0F1F-6828-47C6-94B5-32C1F68E101D</title>
    <g id="Shortlisted-for-Intouch" stroke="none" stroke-width="1" fill="none" fill-rule="evenodd">
        <g id="10-Pricing-01" transform="translate(-1146.000000, -1632.000000)" fill="#FEDC5A">
            <g id="Features" transform="translate(297.000000, 1469.000000)">
                <g id="1-copy-3" transform="translate(760.000000, 163.000000)">
                    <g id="Icon" transform="translate(89.000000, 0.000000)">
                        <circle id="Oval" fill-opacity="0.1" cx="34.5" cy="34.5" r="34.5"></circle>
                        <g id="spaceship" transform="translate(21.000000, 22.000000)" fill-rule="nonzero">
                            <path d="M13,4.17629381 C9.50108853,3.44764696 5.77176516,4.99947101 3.12347204,8.42781025 C2.9428148,8.66149142 2.96240577,8.99557736 3.16909244,9.20577728 L5.91671099,12 C7.75872796,8.95147692 10.1641349,6.29463245 13,4.17629381 L13,4.17629381 Z" id="Path"></path>
                            <path d="M16,22.0873539 L18.8029589,24.8319749 C19.0127142,25.0373569 19.3460933,25.0568242 19.5792801,24.8773073 C23.021459,22.2285157 24.5711718,18.4951885 23.8100841,15 C21.6936444,17.8300436 19.0423365,20.2360045 16,22.0873539 L16,22.0873539 Z" id="Path"></path>
                            <path d="M26.8302417,0.174589737 C26.716126,0.0550070884 26.5552867,-0.00848192175 26.3902587,0.000912777138 C10.5034014,0.830509722 5.09045351,14.7084567 5.03719242,14.8485561 C4.95700305,15.0613917 5.00886764,15.3014629 5.16976622,15.4622147 L11.5379402,21.8303699 C11.6464844,21.9389465 11.7937122,22 11.9472401,22 C12.0180967,22.0002186 12.0883769,21.987262 12.1544952,21.9617854 C12.2945951,21.9079456 26.1002174,16.4272796 26.9992877,0.612834599 C27.0073957,0.449429044 26.9459842,0.290222168 26.8302417,0.174589737 Z M15.4207896,13.8950696 C14.141864,13.8950696 13.1050899,12.8582986 13.1050899,11.5793768 C13.1050899,10.3004549 14.141864,9.26368396 15.4207896,9.26368396 C16.6997152,9.26368396 17.7364892,10.3004549 17.7364892,11.5793768 C17.7364892,12.8582986 16.6997152,13.8950696 15.4207896,13.8950696 Z" id="Shape"></path>
                            <path d="M6.91958312,20.9450633 C5.47673257,19.6849789 3.14071028,19.6849789 1.69785973,20.9450633 L1.69785973,20.9450633 C0.370584529,22.1061805 0.036458227,25.9864446 0.00138419528,26.4253641 C-0.0100462971,26.574339 0.0497011999,26.7207813 0.16636074,26.8297247 C0.28302028,26.9386682 0.446120581,27.0003342 0.616718085,27 L0.657945456,27 C1.15944258,26.9698397 5.59292325,26.6768677 6.91958312,25.516289 C8.36013896,24.2533556 8.36013896,22.2079967 6.91958312,20.9450633 L6.91958312,20.9450633 Z" id="Path"></path>
                        </g>
                    </g>
                </g>
            </g>
        </g>
    </g>
</svg>