<?xml version="1.0" encoding="UTF-8"?>
<svg width="69px" height="69px" viewBox="0 0 69 69" version="1.1" xmlns="http://www.w3.org/2000/svg" xmlns:xlink="http://www.w3.org/1999/xlink">
    <title>07A7B433-94C5-4263-ACCE-F98CAF206BAC</title>
    <g id="Shortlisted-for-Intouch" stroke="none" stroke-width="1" fill="none" fill-rule="evenodd">
        <g id="10-Pricing-01" transform="translate(-386.000000, -1632.000000)" fill="#5454D4">
            <g id="Features" transform="translate(297.000000, 1469.000000)">
                <g id="1" transform="translate(0.000000, 163.000000)">
                    <g id="Icon" transform="translate(89.000000, 0.000000)">
                        <circle id="Oval" fill-opacity="0.1" cx="34.5" cy="34.5" r="34.5"></circle>
                        <g id="sidebar" transform="translate(18.000000, 21.000000)" fill-rule="nonzero">
                            <path d="M18,28 L2.16,28 C0.96706494,28 0,27.0103137 0,25.7894737 L0,2.21052632 C0,0.989686342 0.96706494,0 2.16,0 L18,0 L18,1.47368421 L2.16,1.47368421 C1.76235498,1.47368421 1.44,1.80357966 1.44,2.21052632 L1.44,25.7894737 C1.44,26.1964203 1.76235498,26.5263158 2.16,26.5263158 L18,26.5263158 L18,28 Z" id="Path"></path>
                            <path d="M31.7894737,0 L20,0 L20,28 L31.7894737,28 C33.0103137,28 34,27.0103137 34,25.7894737 L34,2.21052632 C34,0.989686342 33.0103137,0 31.7894737,0 Z M29.5789474,20.6315789 L24.4210526,20.6315789 C24.014106,20.6315789 23.6842105,20.3016835 23.6842105,19.8947368 C23.6842105,19.4877902 24.014106,19.1578947 24.4210526,19.1578947 L29.5789474,19.1578947 C29.985894,19.1578947 30.3157895,19.4877902 30.3157895,19.8947368 C30.3157895,20.3016835 29.985894,20.6315789 29.5789474,20.6315789 Z M29.5789474,14.7368421 L24.4210526,14.7368421 C24.014106,14.7368421 23.6842105,14.4069467 23.6842105,14 C23.6842105,13.5930533 24.014106,13.2631579 24.4210526,13.2631579 L29.5789474,13.2631579 C29.985894,13.2631579 30.3157895,13.5930533 30.3157895,14 C30.3157895,14.4069467 29.985894,14.7368421 29.5789474,14.7368421 Z M29.5789474,8.84210526 L24.4210526,8.84210526 C24.014106,8.84210526 23.6842105,8.51220982 23.6842105,8.10526316 C23.6842105,7.6983165 24.014106,7.36842105 24.4210526,7.36842105 L29.5789474,7.36842105 C29.985894,7.36842105 30.3157895,7.6983165 30.3157895,8.10526316 C30.3157895,8.51220982 29.985894,8.84210526 29.5789474,8.84210526 Z" id="Shape"></path>
                        </g>
                    </g>
                </g>
            </g>
        </g>
    </g>
</svg>