<?xml version="1.0" encoding="UTF-8"?>
<svg width="69px" height="69px" viewBox="0 0 69 69" version="1.1" xmlns="http://www.w3.org/2000/svg" xmlns:xlink="http://www.w3.org/1999/xlink">
    <title>E8707680-9955-4ED9-9B60-DFF8C9E7242A</title>
    <g id="Shortlisted-for-Intouch" stroke="none" stroke-width="1" fill="none" fill-rule="evenodd">
        <g id="10-Pricing-01" transform="translate(-386.000000, -1904.000000)" fill="#F04037">
            <g id="Features" transform="translate(297.000000, 1469.000000)">
                <g id="1-copy-6" transform="translate(0.000000, 435.000000)">
                    <g id="Icon" transform="translate(89.000000, 0.000000)">
                        <circle id="Oval" fill-opacity="0.1" cx="34.5" cy="34.5" r="34.5"></circle>
                        <g id="chat-content" transform="translate(20.000000, 21.000000)" fill-rule="nonzero">
                            <path d="M26.7391304,0 L3.26086957,0 C1.45994103,0 0,1.4923675 0,3.33329611 L0,17.999799 C0,18.8838441 0.343554914,19.731681 0.955086583,20.3567953 C1.56661825,20.9819096 2.39603319,21.3330951 3.26086957,21.3330951 L9.46956522,21.3330951 L14.4913043,27.7496901 C14.6150663,27.9078968 14.8024843,28 15.0006522,28 C15.19882,28 15.386238,27.9078968 15.51,27.7496901 L20.5304348,21.3330951 L26.7391304,21.3330951 C28.540059,21.3330951 30,19.8407276 30,17.999799 L30,3.33329611 C30,1.4923675 28.540059,0 26.7391304,0 Z M16.375,14 L7.625,14 C7.27982203,14 7,13.7761424 7,13.5 C7,13.2238576 7.27982203,13 7.625,13 L16.375,13 C16.720178,13 17,13.2238576 17,13.5 C17,13.7761424 16.720178,14 16.375,14 Z M23.3461538,8 L7.65384615,8 C7.29273689,8 7,7.77614237 7,7.5 C7,7.22385763 7.29273689,7 7.65384615,7 L23.3461538,7 C23.7072631,7 24,7.22385763 24,7.5 C24,7.77614237 23.7072631,8 23.3461538,8 Z" id="Shape"></path>
                        </g>
                    </g>
                </g>
            </g>
        </g>
    </g>
</svg>