<?xml version="1.0" encoding="UTF-8"?>
<svg width="69px" height="69px" viewBox="0 0 69 69" version="1.1" xmlns="http://www.w3.org/2000/svg" xmlns:xlink="http://www.w3.org/1999/xlink">
    <title>669B8617-9AA1-4C34-8B66-97399A352013</title>
    <g id="Shortlisted-for-Intouch" stroke="none" stroke-width="1" fill="none" fill-rule="evenodd">
        <g id="10-Pricing-01" transform="translate(-1146.000000, -1904.000000)" fill="#5454D4">
            <g id="Features" transform="translate(297.000000, 1469.000000)">
                <g id="1-copy-4" transform="translate(760.000000, 435.000000)">
                    <g id="Icon" transform="translate(89.000000, 0.000000)">
                        <circle id="Oval" fill-opacity="0.1" cx="34.5" cy="34.5" r="34.5"></circle>
                        <g id="loop" transform="translate(18.000000, 27.000000)" fill-rule="nonzero">
                            <path d="M27.3478261,2.74048896 C24.9293913,2.74048896 20.8981739,5.65610811 16.6311739,8.74336426 C12.8845217,11.4541976 8.63747826,14.526721 6.65217391,14.526721 C3.79986957,14.526721 1.47826087,12.2129363 1.47826087,9.37024448 C1.47826087,6.52755264 3.79986957,4.21376796 6.65217391,4.21376796 C7.15182609,4.21376796 7.82813043,4.40308431 8.63895652,4.75004152 L6.77930435,8.13931987 C6.64034783,8.39125058 6.66252174,8.70063917 6.834,8.93120733 C6.97443478,9.12126033 7.19617391,9.22880969 7.42752174,9.22880969 C7.47704348,9.22880969 7.52878261,9.22365322 7.57904348,9.21334026 L14.1942609,7.83508775 C14.4041739,7.79088938 14.5852609,7.65903091 14.6894783,7.47118784 C14.7936957,7.28334477 14.8106957,7.060143 14.7360435,6.85977705 L12.376,0.481952241 C12.2754783,0.210868904 12.0256522,0.0230258305 11.7366522,0.00239992443 C11.4528261,-0.0211725396 11.1726957,0.130575198 11.0344783,0.383979187 L9.34852174,3.45723919 C8.279,2.98799983 7.37208696,2.74048896 6.65217391,2.74048896 C2.98386957,2.74048896 0,5.71430263 0,9.37024448 C0,13.0261863 2.98386957,16 6.65217391,16 C9.11717391,16 13.1890435,13.0541786 17.4996522,9.93598362 C21.2063913,7.25387919 25.409087,4.21376796 27.3478261,4.21376796 C30.2001304,4.21376796 32.5217391,6.52755264 32.5217391,9.37024448 C32.5217391,12.2129363 30.2001304,14.526721 27.3478261,14.526721 C26.1770435,14.526721 24.0498261,13.5241546 21.357913,11.7031818 C21.0208696,11.4733503 20.5611304,11.5632203 20.3312609,11.8991279 C20.1013913,12.2357721 20.190087,12.6939619 20.5278696,12.9223202 C23.5464783,14.9642849 25.8414783,16 27.3478261,16 C31.0161304,16 34,13.0261863 34,9.37024448 C34,5.71430263 31.0161304,2.74048896 27.3478261,2.74048896 Z" id="Path"></path>
                        </g>
                    </g>
                </g>
            </g>
        </g>
    </g>
</svg>