<?xml version="1.0" encoding="UTF-8"?>
<svg width="118px" height="118px" viewBox="0 0 118 118" version="1.1" xmlns="http://www.w3.org/2000/svg" xmlns:xlink="http://www.w3.org/1999/xlink">
    <title>CD2A661F-466B-42F0-A09E-30EC3267AD06</title>
    <g id="Shortlisted-for-Intouch" stroke="none" stroke-width="1" fill="none" fill-rule="evenodd">
        <g id="22-Thank-you" transform="translate(-741.000000, -204.000000)">
            <g id="Thumb" transform="translate(741.000000, 204.000000)">
                <circle id="Oval" fill="#5454D4" cx="59" cy="59" r="59"></circle>
                <g id="ic_thumb_up_48px" transform="translate(34.000000, 36.000000)" fill="#FFFFFF" fill-rule="nonzero">
                    <path d="M0,46 L9.09090909,46 L9.09090909,18.4 L0,18.4 L0,46 Z M50,20.7 C50,18.1585 47.9659091,16.1 45.4545455,16.1 L31.1022727,16.1 L33.2727273,5.589 C33.3181818,5.359 33.3522727,5.1175 33.3522727,4.8645 C33.3522727,3.91 32.9659091,3.0475 32.3522727,2.4265 L29.9318182,0 L14.9659091,15.1455 C14.1477273,15.985 13.6363636,17.135 13.6363636,18.4 L13.6363636,41.4 C13.6363636,43.9415 15.6704545,46 18.1818182,46 L38.6363636,46 C40.5227273,46 42.1363636,44.8385 42.8181818,43.194 L49.6704545,26.979 C49.875,26.45 50,25.8865 50,25.3 L50,20.8955 L49.9772727,20.8725 L50,20.7 Z" id="Shape"></path>
                </g>
            </g>
        </g>
    </g>
</svg>